<svg id="Layer_1" data-name="Layer 1" xmlns="http://www.w3.org/2000/svg" viewBox="0 0 1417.21 648.35" width="200" height="92"><path d="M760.72,469.76a25.42,25.42,0,0,0-1.62-5.93c-1.93-1.71-4.23-3-5.79-5.09-7.06-8.63-16.94-14.24-26.68-19.31-7.18-5.18-15.67-7.71-23.36-11.85a3.42,3.42,0,0,0-1.12-.45.7.7,0,0,0-.49-.2h0c-1.3-.46-2.51-1.32-3.83-1.71h0v-.07l-.27-.11h0c-6.4-2.65-12.66-5.91-19.64-6.61,2.57,2.53,6.08,3.75,9.24,5.4a14.55,14.55,0,0,1,.19,3.09c1.08-.1,2.17-.29,3.28-.35.2.54.61,1.63.82,2.17,7.12,2.86,12.51,8.88,19.88,11.16,2.23.39,2.53,3.5,4.87,3.63,1.59.31,3.26.73,4.27,2.14,2.3,2.77,5.63,4.29,8.3,6.63l-.09.78c-2.51-.57-4.9-1.55-7.34-2.3-8.19-2.87-16.75-4.38-25-7-14.85-3.51-29.71-7-44.53-10.58-19.61-5.57-39.24-11-59.06-15.85-10.16-2.67-20.1-6.06-30.32-8.54a59.73,59.73,0,0,1-15.2-5.91A73.3,73.3,0,0,1,529,393.06c1.42-4.19,5.53-6.3,7.85-9.86,4.5-6.32,6.88-13.78,10-20.78,1.18-3.91,2.45-7.84,3.28-11.83-.77-2.72-1.12-5.46-.07-8.16-1.11-5-2.2-10.62-6.31-14.11-4.79-5.06-12.36-5.82-18.92-5.23-4.16.1-7.54,2.7-11.07,4.53-3.47-1.31-4.41-5.76-7.1-8.15-2.28-1.85-3.53-4.54-5.36-6.76A134.16,134.16,0,0,0,485.2,298.9c-5.6-5.15-12.72-8-19.13-11.89-3.57-1.88-7.63-2.49-11.45-3.69-2.25-.87-4.44.86-5.19,2.91-.23,5.15.91,10.23,2,15.23,2.28,8,4.66,16.08,9,23.27,1.74,2.78,2.48,6,4,8.93,2.47,5.09,6,9.59,8.39,14.71.66,1.67,2.51,3,2.24,5l-2-.12c-10.12-3.4-19.78-8-30-11.14-5.05-1.61-9.41-4.76-14.38-6.55-4.19-1.47-8-4-12.41-4.71-2.67-1.19-4.85-3.44-7.78-4.13-6.3-1.62-11.57-5.78-17.93-7.17-8.06-2-14.39-7.76-22.18-10.42,1.23-3.4,5.25-4.33,7.53-6.88a48.48,48.48,0,0,1,8.87-8.12c3.54-2.43,6.19-5.9,9.69-8.38,2.71-1.94,4.54-4.76,6.8-7.15,5.5-2.93,9.43-7.9,14.15-11.85,3.35-2.66,6.12-6,9.76-8.31,3.47-2.18,5.07-6.46,9.07-7.93,3.5-3.12,7.38-5.87,10.63-9.26,5.37-7.56,12.83-13.21,19.16-19.9,13.49-12.9,25.16-27.45,38.42-40.59,7.7-9.28,14.77-19.16,23.4-27.64,2.63-3,4.73-6.53,7.72-9.26,3.76-3.44,5.28-8.55,8.79-12.19,7-7.14,11.45-16.45,18.67-23.45,1.86-1.92,2.94-4.44,4.6-6.53.7-.88.26-2,.4-3.07,4-1.48,4.65-6.11,7.9-8.42,4-3.31,5-8.73,8.72-12.24s5.29-8.54,8.83-12.16c6.09-6.47,10.2-14.42,15.54-21.46,3.16-6,6.67-11.92,10.37-17.65,1.66-.27,3.28.62,4.93.82a53.76,53.76,0,0,1,0-7.18c.16-2.59,1.43-5.14.67-7.74-.56-4.15-3.27-7.48-5.35-11-1.72-1.3-4.08-2.08-6.12-1.06-.94,3-1.7,6.1-3.31,8.85-3.91,6.8-6.8,14.21-11.5,20.54-2.83,3.65-4.28,8.18-7.46,11.59-2.54,2.72-3.87,6.21-5.7,9.37-4.56,3.67-7.08,9-10.09,13.91-7.9,8.27-13.44,18.39-20.78,27.13-4.44,5-6.8,11.62-12,16-3.27,2.84-4.82,7.06-7.8,10.15a42.66,42.66,0,0,0-4.56,5.47c-3,4.31-6.88,7.86-9.83,12.19-7.83,9.8-17.16,18.34-24.38,28.63a95.9,95.9,0,0,0-7.29,7.66c-1.72,2-5.4,3.41-4.92,6.56-4.33,1.86-7.09,6-10.26,9.29-3.09,3.89-7.81,6.52-9.68,11.31-1.27,1.41-3.42,1.84-4.56,3.46-2.91,3.47-6.54,6.33-9,10.16-5.2,2.93-8.62,8-13.11,11.75q-7.94,7.08-15.42,14.6c-6.5,5.83-13.3,11.35-19.4,17.61-2.89,2.81-6.3,5.08-8.68,8.39-5.9,4.71-11.85,9.41-17.05,14.92-6.52,5.5-13.1,10.91-19.81,16.19-1.93,1.44-3.5,3.66-6,4.12-7.35-2.23-14.76-4.5-21.43-8.39-4.41.16-7.86-2.9-11.67-4.65-5.28-2.24-10.5-4.68-16.16-5.79-6.22-3.58-13.23-5.41-19.83-8.18-15.67-5.51-31.16-11.67-47.21-16-5-2.12-10.07-4.39-15.44-5.55-3.06-1.14-6.23-4-9.57-2-.06-.65-.12-1.3-.2-1.95-4.74-1-8.93-3.71-13.76-4.27-9.19-1.08-17.26-6.22-26.28-7.94-3.16-1.79-6.93-1.3-10.18-2.77-6.88-2.26-14.29-2-21.26-3.79-14.43-4.17-29.48-4.6-44.27-6.49-8.35-.78-16.75,0-25.12-.64-5,.16-10.16.29-15.05,1.68-2.72.8-5.58.31-8.33.82A68.17,68.17,0,0,0,22.74,234c-4.34,3-7,7.64-10.49,11.51C4.5,257.53.78,271.86,0,286.15.2,296,.43,306,1.55,315.8,5,329,7,342.8,13.06,355.12c2.19,4.26,3,9.15,5.68,13.16,1.55,2.34,2,5.16,3.28,7.64,8.51,12.82,14.92,27.27,26,38.26,2.81,4.4,6.63,8,10.2,11.76,2.58,2.72,6,4.59,8.25,7.64,2.57,3.88,7.4,5.2,10.4,8.65,2.56,3.28,6.9,3.86,10.4,5.68,6,3.28,12.77,4.93,19.3,6.9,9.15.78,18.66,2.63,27.61-.31,6.58-.75,12.92-2.85,19.54-3.36,7.61-4.16,16.19-6.1,23.78-10.34,4.36-2.48,9.4-3.6,13.53-6.52a81,81,0,0,1,12.82-7.18c4.41-4,9.79-6.45,15-9.17,2.64-1.19,4.17-4,7-4.85a94.27,94.27,0,0,0,19.74-12.27c3.13-2.7,7.4-3.68,10.2-6.8,3.6-2.77,6.83-6,10.9-8.1,4.87-2.65,8.63-6.82,13.35-9.67,7.85-5.08,14.56-11.84,22.89-16.17,3-1.54,4.75-4.71,7.89-6,5-2.4,8.66-6.64,12.82-10.16,1.95-1.82,4.65-2.56,6.49-4.52,2.66-2.67,6.15-4.43,8.37-7.56.82-1.38,2.42-1.76,3.79-2.38,4.35-1.57,6.8-5.81,10.32-8.56,1.58-1.11,3.09-3.28,5.28-2.51,5.66,1.61,10.91,4.37,16.47,6.3,3.12.9,5.37,3.36,8.17,4.88,4.78,1.74,9.3,4.1,14,6,8.44,4.3,17.33,7.51,26.16,10.89A98.48,98.48,0,0,0,441.07,354c4.31.83,7.73,3.83,11.86,5.19,10.28,3.92,20.28,8.54,30.6,12.34,3.14,1.1,5.83,3.81,9.3,3.7,1.13-2.41-.64-4.81-1.31-7.08,3.31-3.7-.31-8.6-2.65-11.84C479.5,340,470.43,323.41,463,306.09c-.65-1.6-.31-3.39-.22-5a20.49,20.49,0,0,1,11.14,4.11c2.95,2.61,7.28,3,9.94,6,3,3.2,6.92,5.28,10.68,7.47,2.35,2.63,4.3,5.61,6.87,8.06,3.49,4.22,4.59,9.75,6.06,14.89.87,3.12-.86,6.19-.68,9.33,1.83,2.68,3.58,5.42,5.21,8.24,1,2.16,3.75,2.15,5.76,1.83,1.07-5.14,1.56-10.39,2.57-15.54,1.34-3.89,5.11-6,8.48-7.92a40.77,40.77,0,0,1,10.9,1,7.13,7.13,0,0,1,.51,4.57c-1.58,7.86-5.28,15.11-9.66,21.76-2.47,4.6-6.25,8.27-9.92,11.91-2.24,2.11-5.51,3.89-5.73,7.32a24.66,24.66,0,0,0,8.45,21.59,71.25,71.25,0,0,0,22.9,13,34.07,34.07,0,0,0,12.39,5c2.26.51,4.09,2.21,6.43,2.5,4.88.5,9.35,2.65,14.11,3.71,4.2.78,7.9,3.17,12.16,3.78,8.23,1,15.86,4.59,24.1,5.65,5.3.44,9.88,3.48,15.12,4.19,8.93,2.08,17.78,4.49,26.75,6.4,3.62.63,6.68,3,10.41,3.18,6.73,2.68,14.14,2.81,20.83,5.57,5.84,1.38,11.66,2.87,17.45,4.43,9.93,4.45,21.32,4,31.12,8.76a44.66,44.66,0,0,1,16.45,5.69c2.14,1.59,4.79,1,7.14.27C760.49,475.15,759.88,472.41,760.72,469.76ZM333.15,313.5q-10.9,9.11-22.36,17.56c-8.58,7.2-17.91,13.47-26.91,20.09-8.06,6.39-16.74,11.9-24.95,18.07-12.93,9.61-26.57,18.2-40.08,27-4.59,4-10.48,6-15.18,9.78s-10.43,6.12-15.49,9.44c-5.32,3.13-11.17,5.25-16.3,8.69-11.48,5-22.94,10.53-35.37,12.82-11.06,2.1-22.54,3.44-33.71,1.36-14.72-.68-26-11.32-36.55-20.45-3.25-4.07-7.54-7.14-10.65-11.31-4.22-5.51-9.25-10.46-12.53-16.64-2.77-5.08-6.72-9.43-9.22-14.65-3.7-10.47-9.21-20.18-12.66-30.75-1.53-4.79-2.48-9.73-4-14.52-3.31-10-3.31-20.64-5.53-30.84a16.24,16.24,0,0,0-.09-6.8l1.74-1.08c0-2.07-.72-4.06-.83-6.12,2.29-5.62,3.65-11.68,6.2-17.25,3.24-5.61,6.47-11.29,10.86-16.1,1.65-1.83,2.78-4.05,4.31-6,.68.66,1.36,1.34,2,2,.92-4,5.09-6.3,9-6.33,8.36-3.94,17.88-4.27,27-4.52,5.21-.63,10.46-.86,15.7-1A152.76,152.76,0,0,0,104,237.32c1.59-.14,3,.74,4.39,1.27,2.06.48,4.19-.14,6.28.1,6.85,1.64,14,1.44,20.65,4.05,5.75-.38,10.91,2.79,16.62,2.54,4.15.22,7.94,2.16,12,2.84,5.54,1.58,11.16,2.9,16.74,4.36,9.58,4.08,20,5.54,29.66,9.37,11.44,5,23.65,7.92,35.19,12.68,3.51,1.7,7.33,2.6,11,3.86,7.84,3.71,16.22,6.1,24.55,8.43,8.68,4.17,18,6.78,27,10.2a54.78,54.78,0,0,0,9.84,4.13c6.49,3.09,12.93,6.35,19.86,8.39C337.5,311.79,334.55,312,333.15,313.5Z" fill="white" transform="translate(0 -0.06)"/><path d="M1416.32,301.73c-1.09-1.22-2.22-2.4-3.19-3.69.69-1.34,1.52-2.6,2.22-3.94a21.64,21.64,0,0,0-3.73-3.8c-5.92-.45-11.93.31-17.78-1-7.24-.09-14.4-1.09-21.61-1.5-5.33-1-10.77-.31-16.1-1.09s-10.56-.31-15.76-1.31c-18.87-1-37.67-3.33-56.54-4.36-14.94-1.57-30-2.1-44.94-3.52-14.07-.4-28-2.28-42.12-2.59-8.81-1.19-17.75-.74-26.56-2.09-5.48-1-11.15.16-16.51-1.56a69.6,69.6,0,0,1-10.78-1c-8.84,0-17.62-1.93-26.46-1.41-6.26-1.53-12.78-1.27-19.12-2.28-11.82-1.47-23.71-2.49-35.48-4.33-18-1.8-36.32-4-53.27-10.83-3.61-1.22-8.93-1.81-9.82-6.29-1.87-10.87-6.52-21-8.09-32,.26-4-1.56-7.49-2.34-11.27-.77-3.08-3.4-6.08-6.53-6.66-4.22,1-4.46,5.79-5.28,9.27-2.09,6.76-.72,13.86-1.22,20.8-.43,3.42,1.63,6.37,1.7,9.72,1.81,7.12,3.91,14.53,8.88,20.16,2.37,2.23,5.46,3.76,7.2,6.62a28.18,28.18,0,0,1,2.79,7.49c1.74,7.76,3.47,15.55,5.93,23.12,2.63,5.85,3.43,12.25,4.73,18.48,1.81,7.28,4.19,14.42,6.16,21.66-2.89-.88-5.06-3-7.64-4.48-5.88-2.53-12.34-3.1-18.46-4.78-7.19-3.3-11.72-10.23-18-14.82-1-1.93-1.28-4.49-3.46-5.52-1.76-1.38-4.13-.74-6.16-.73-1.63,2.34-1.68,5.43-3.36,7.78-3.37,5.51-6.09,11.36-9,17.07-2.58.43-4-2.42-5.79-3.78-2.25-2.84-5.54-4.47-8.07-7-3.09-3-7.2-4.69-10.24-7.75-2.08-2-4.63-3.36-7-5-5.88-3.73-11.29-8.16-17.28-11.7-4.72-2.22-8.51-6.09-13.54-7.66-1.13-.52-2.8-.52-3.13-2,2.37-3.58,4.83-7.13,6.93-10.88s1.64-8.08,3.49-11.84c2-7.28,4.39-14.54,8.26-21,3.5-4.38,4.7-9.95,7.1-14.9,2.66-5.24,3.61-11.11,6.07-16.42-1-.86-2.19-1.56-3.18-2.45-.73-3.28-1-7.41-4.31-9.18a6.46,6.46,0,0,0-4.74,5.73c-.86,7.08-6,12.44-8.06,19.1a68.79,68.79,0,0,1-5.94,17.17c-3.46,7.45-4.74,15.9-9.45,22.77-2.8,5.16-5.21,10.54-8.39,15.49l-1.41.35A127.25,127.25,0,0,0,833.88,265c-4.11-.32-8.65.67-11.67,3.6-3.69,6.87-3.62,14.95-4,22.55,0,10.69-.86,21.34-.79,32,.25,4.75-1.78,9.13-2.65,13.7-1,6.06-2.36,12.05-3.23,18.13l-1.41-.26c-3.12-3.58-6.26-7.15-9.24-10.85a1.87,1.87,0,0,0-.51-.81c-.11-.1-.21-.21-.31-.32l-.07-.09-.07-.09c-.25-.35-.49-.71-.75-1.05a7.39,7.39,0,0,0-1.3-1.38,1.67,1.67,0,0,0-.31-.44c-1.66-2.46-3.68-4.64-5.39-7a2,2,0,0,0-1.68-.94l-.21-.47h.07c-1.77-3.56-5.19-5.93-7.5-9.12-7.75-6.9-15.55-13.79-23.72-20.22a10.12,10.12,0,0,0-4.26-1.68c-3.93.64-3.2,5.84-4,8.8,2.46,9.2,6,18.17,7.48,27.61.7,4.24,2.55,8.27,2.56,12.62-3.39-2-3.39-6.54-6-9.21-1.95-1.69-4.95-3-7.31-1.3-2.67,9.56-3.22,20.31-10.05,28.11a1.47,1.47,0,0,1-2-.51,1.49,1.49,0,0,1-.2-.68,118.45,118.45,0,0,1-6.69-20.7c-1.11-5.19-2.86-10.38-2.24-15.76.93-8.7-3.57-16.52-5.78-24.66-2.51-1.08-6.35-2.74-7.75.75-.92,7,1.85,13.72,2.44,20.59-2.58,5.63-5,11.73-9.84,15.82-6.44,6-14.23,12.07-23.5,11.6-2.11-1.79-2.91-4.63-4.32-6.93-2.73-5.87-6.13-11.53-7.53-17.91-1.2-5.14-4.36-9.45-6.66-14.1-2.56-7-3.59-14.54-7-21.25a19.55,19.55,0,0,1,1.83-3c.08-4.75-2.81-8.76-4.06-13.18a73.75,73.75,0,0,0-8.66-20.32c-2-1.36-6.07-3-7.45-.16-.73,8.73,3.31,16.75,4.87,25.15,2.53,8.83,6.43,17.22,8.59,26.17,2.89,8.23,6.29,16.27,9.73,24.28a35,35,0,0,0-13.25-.67,24.5,24.5,0,0,0-8.78,5.15c-1.51,1.3-2,3.67-4,4.41a48.37,48.37,0,0,0-6.57-8.57c-4.41-3.05-9.34-5.69-14.79-6-5.65-1.07-11.07,1.4-16.06,3.73-1.63.66-2.52,3.11-4.49,2.67-3.12-4.5-7.51-7.89-10.52-12.47-3.55-4.59-8.83-7.22-13.13-11a119,119,0,0,0-21.36-11.6c-4.88-2.69-10.35-3.95-15.67-5.4-6-.63-13.15-3.05-18.31,1.36a134.18,134.18,0,0,0,1,14.3c.2,3.74,3.73,6.06,4.36,9.69a7.65,7.65,0,0,0,2.57.06c2.07-2.75,3.38-5.8,2.9-9.29,4.08-2.33,8.58-.19,12.78.53a38.68,38.68,0,0,1,12.35,4.58c4.16,1.84,8.4,3.54,12.48,5.59,4.56,2.34,8.32,5.94,12.89,8.27,2.58,2.35,4.37,5.49,7.4,7.39,2.09,2.88,4.92,5.47,6.44,8.63-1.52,7.81-1,16.21,2.58,23.43,2,3.85,3,8.12,5.26,11.81,2.73,2.8,5.75,7.23,10.24,5.38,4.54-5.57,3.19-13.09,2.69-19.68-.7-4.73-3.8-8.52-6-12.62-1.25-2.42-1.21-6.2,1.54-7.58a56.61,56.61,0,0,1,9.19-2.7c5.7.16,12.34,2,14.83,7.77a43.15,43.15,0,0,0-1.26,19.46q1.88,4.41,3.74,8.83a24.14,24.14,0,0,0,4.5,2.15c4.78-2.46,5.13-8.11,6.25-12.72.23-4.46-1-9.24,1.33-13.37a4.29,4.29,0,0,1,2.72-.13c1.7,10.57,12.37,15.87,16.28,25.33,2.24.68,4.67,0,6.95-.26.5-3-2-5.34-2.33-8.23,2.93-.76,5.76,1.08,8.74.91,5.45.69,10.59-1.59,16-2.07,4.47-1.32,9.15-3.13,12-7.05,1.85-2.91,5.92-2.42,8.1-4.93a55.92,55.92,0,0,0,4.51-5.1c-.38-.72-.74-1.42-1.1-2.13a20.26,20.26,0,0,1,3.47-1.54,17.52,17.52,0,0,1,1.24,4.83c.86,5.54,3.26,10.65,4.92,16,2.21,5.81,4.54,12.36,10.24,15.64,2.79,1.38,6.32,2.34,9.31,1.06,2.7-3.57,4.17-7.81,5.32-12.08a39.21,39.21,0,0,0,3.78-10.44c2.6,1.39,3,4.57,4,7.08a37.17,37.17,0,0,0,4.4,10.62c3.1,4.74,3.56,10.63,6.34,15.54a18.34,18.34,0,0,0,6.43.52c.28-.58.83-1.75,1.1-2.33.66-9.61-1.86-19.06-3.34-28.49-1.54-4.59-1.83-9.43-2.72-14.14-1.64-3.9-1.68-8.2-3-12.18-2.23-5.38-1.5-11.35-3.39-16.83l1.39-.76c3.5,4.09,8.42,6.68,12.12,10.68,4.19,3.87,7.37,8.66,11.3,12.75,6.5,5.36,9.62,13.52,15.49,19.45,3.56,3.33,4,9.12,8.59,11.51,1.55,1.45,4.17,2,5.94.65.12-6.28,2.93-12,4.16-18,1.66-9.81,2-19.81,3.82-29.59.61-6.23,1.38-12.5.69-18.74-.34-7.68,1.11-15.28,1.51-22.92,0-3,2.3-6.44,5.61-6.06s6.47,1,9.74,1.24c5.73,1.53,11.39,3.38,17,5.16-1.4,6.69-6.92,11.6-9.53,17.82-2.23,5.81-6.12,10.75-8.65,16.41-3.12,6.77-6.56,13.45-8.73,20.6-1.66,5.38-1.29,11.05-1.42,16.61,0,5.82.16,11.84,2.34,17.33,2.42,5.1,4.66,10.34,8,14.94,5.5,3.49,11.58,5.88,17.55,8.44,6.66,2.65,13.86,3.32,20.75,5.11,2.3.23,4.6-.32,6.92-.37l.57,1.54c2,.47,4.56-.27,6.12,1.47,2.21,2.09,2.61,5.32,3.93,8,1.49,4.2,5.63,6.4,8.57,9.47,3.56,4,8.24,6.76,13.06,9,4.63,2.11,9.87.5,14.55,2.4A155.68,155.68,0,0,0,964,439.81c6,.18,11.88,1.61,17.9,1.61,7.79,1.51,16.33,2.91,22.32,8.6a34.87,34.87,0,0,1,8.59,10.39c2.67,4.17,6.24,8.56,5.52,13.85-1.46,7.53-7.79,12.59-13.82,16.62-7.41,5.84-16.8,8.24-26,9.25v0a2.28,2.28,0,0,0-.63.18c-1.53.72-3.55.39-5.18.66a3.7,3.7,0,0,0-1.13.39c-.86-.06-1.8.13-2.59,0a85.77,85.77,0,0,0-8.6,1,7.84,7.84,0,0,0-4.13.69c-2.44.4-4.88.76-7.34,1-9,1.63-18.11,2.34-26.87,5-12.15,1.19-23.9,4.62-36,6.25-2.3.22-4,2.34-6.39,2.14-5.65-.45-11.06,1.56-16.64,2-1.9,0-3.31,1.42-4.93,2.19a15,15,0,0,0-9.17.88c-5.27-.11-10.34,1.55-15.52,2.31-4.27,1.08-9,1.28-12.68,3.87-3.24-.58-6.44.06-9.61.71-9.93,1.41-19.62,4-29.54,5.5-13.21,3-26.84,3.92-39.82,8-5.42.26-10.32,2.83-15.73,3.25-25.64,5.86-51.52,10.79-77,17.2l-1.67.27a3.8,3.8,0,0,0-1.3.49c-1.59.41-3.18.8-4.77,1.22h0a4.61,4.61,0,0,0-1.63.65c-6.17-.37-12.1,1.87-17.85,3.82q-8.84,1.66-17.59,3.64c-9.16,2.58-18.6,4.16-27.62,7.24-5.4,1.07-10.88,2-16,4-7.31,1.55-14.35,4.07-21.68,5.52-12.19,4-24.81,6.49-37,10.39-3.44,1-7.11-.33-10.47.94-14.07,5.92-29.45,7.68-43.64,13.25a133.5,133.5,0,0,0-21.63,6.29c-12.38,2.67-24.26,7.31-36.79,9.31a2.89,2.89,0,0,0-2.46,2.87c-.42,5.29,1.29,11.18,5.77,14.32,6.4,2.23,12.82-.67,19.12-1.68a100.33,100.33,0,0,0,13.41-4.45c7.25-.3,13.21-5,20.31-5.76,3.44-.55,6.28-2.88,9.77-3.3,12.62-2.09,24.47-7.19,36.88-10.09,2.39-.45,6.17-.8,7.79-2.84,1.41-.34,2.82-.7,4.23-1.09a10.55,10.55,0,0,0,4.93-1.19c5.08-2.52,10.92-2.11,16.28-3.64,4.57-1.36,9.44-1.85,13.7-4.14,4.85-2.61,10.63-2.18,15.54-4.61A19.77,19.77,0,0,1,562,603c8.57-1,16.22-5.92,24.89-6.32,8.76-1.79,17-5.6,26-6.58A229.26,229.26,0,0,0,636.77,584c2.26-1.07,5,.56,7.1-.94a9.32,9.32,0,0,1,6.58-1.27c2.12.47,3.62-1.58,5.63-1.79,5.3-.46,10.45-1.9,15.58-3.28,5.23-1.88,10.49-4,16.14-4.19,7.47-1.22,14.69-4,22.3-4.36,3.65-.5,7.62.11,10.91-1.93,5.36-3,11.56-3.46,17.52-4.26,6.73-.89,13-3.86,19.73-4.63,4-.45,7.87-1.43,11.83-2,9.54-.3,18.48-4.15,28-5.11,3.65-1.17,7.71.24,11.07-1.94,2.46-1.62,5.47,0,8.06-1.14a102.27,102.27,0,0,1,14.21-3.69c3.86-.91,8-.55,11.69-2.05,5.34-1.94,11.1-1.94,16.52-3.6,3.06-.93,6.28-.63,9.44-.83,2.24-.07,4-1.76,6.14-2.15,9.35,0,18.37-2.81,27.62-3.78s18-4.53,27.31-4.74c5.75-.23,11.05-3.27,16.86-2.87a19.06,19.06,0,0,0,2,.19,4.6,4.6,0,0,0,2.4-.62c1.34-.3,2.67-.7,4-1.07,0,.47-.06,1.41-.07,1.88a5.22,5.22,0,0,1,4.84-2.8c3.79.14,7.35-1.46,11.14-1.45a33.3,33.3,0,0,0,4.93-1.16c5.31-1.49,11,0,16.24-1.92,3.56-1.3,7.45-.38,11-1.63,4.65-1.53,9.62-1.28,14.41-2.16,5.52-1,11.14-1.27,16.69-2.1a5.3,5.3,0,0,0,2.36-.4l.19.12c2.67-.25,5.3-.83,8-1.17,2.21-.12,4.09-1.93,6.39-1.26,3.28.74,6.36-1,9.63-1,4,.11,7.51-2,11.45-2.09,3.56-.16,7.15-.19,10.63-1.13,6.54-1.63,13.33-1.32,19.93-2.62,4.77,0,9.21-2.2,14-2,3.09.14,5.9-1.36,8.94-1.63,12.72-.46,25.25-2.62,37.93-3.64,4.69-.65,9.51-.23,14.13-1.48,3.76-1.17,8,.79,11.5-1.46,2-1,4.34-.35,6.51-.4,5.11.49,10.12-2.24,15.17-.56l.44-1.31c3.53-.1,7.06-.25,10.6-.4-.41,3.12-4,2.26-6.15,2.6-3.06,0-5,3.47-8.12,3.12-1.52-.31-2.42-1.8-3.84-2.2.06,1.54,2,1.55,2.65,2.72-2.37.76-4.94.85-7.15,2.06-.15,2.18,2.93.87,4.22,1,5.44-1.39,11.12-1.48,16.53-3.09.08,2-2.8,2.26-4,3.49a8.09,8.09,0,0,0,.68,1.77c1.65-1.38,3.69-.91,5.67-.85,1.24-.79,2.37-1.75,3.62-2.55l.44,1.91c2.81-.61,5.75-.93,8.41-2.1,1.55-2.83,5.13-2,7.74-1.56-.21-1-.39-2-.55-3.07a22.88,22.88,0,0,1,5,2.61c5.58-2.08,11.61-1.91,17.43-2.87,4.27-1.6,8.7-5,13.43-3.13-.06-.44-.17-1.32-.23-1.76a10.35,10.35,0,0,1,4.34-.67c6-.66,11.58-3.57,17.68-3.26,2.87.15,5.32-1.86,7.48-3.53,1.12-3.16-1.62-5.28-2.72-7.77,2.11-2.62.13-5.65-2-7.47-2.15-2.61-5.79-1.19-8.63-1.16-15,1.21-30.08,2.12-45.06,3.85-6.73-.16-13.35,1.11-20,1.89-11.45.32-22.71,2.9-34.16,3.32-9.06,1.17-18.24,1.37-27.18,3.33-4.32.49-8.7.48-13,1.26-7.48,1.15-15.09,1.06-22.54,2.42-11.2,1.5-22.56,2.07-33.59,4.61a4.13,4.13,0,0,0-1.85.07c-18.32,2-36.38,5.84-54.76,7.32-6.07.83-12,2.45-18.14,2.94,1.29-1.91,3.34-3.68,3.47-6.11a1,1,0,0,0-.07-.64,17.39,17.39,0,0,0,.46-2.86,14.78,14.78,0,0,0,.88-7c-1.19-9.79-3.64-19.71-9.12-28-2.5-3.74-4.92-7.67-8.58-10.4-8.84-7.49-19.83-12.81-31.45-13.73-12.33-1.53-24.75-1.81-37.11-2.66a76,76,0,0,1-20.64-4.94c-3.92-1.62-6.87-4.83-10.78-6.46,1.91-1.69,4.88-1,7.26-1.46q-.06,1.22-.06,2.46c6.52-.63,13.26,2.52,19.58,0a43.53,43.53,0,0,0,9.34-.1c6.51-.12,13.21,1.52,19.6-.42,4.84-1.51,10.34-1.22,14.45-4.58,2.35-2.09,6.62-2.9,7.1-6.47-1.23-4.38-.57-8.95-1.26-13.4.24-3.51-2.12-6.3-3.3-9.41-1.71-4.34-4.81-7.89-7.07-11.92-1.82-3.42-4.55-6.22-6.57-9.51-3.87-6.12-9.92-10.94-12.77-17.62a41,41,0,0,1,8.49-14.09A87.77,87.77,0,0,1,974,332c1.83,2,4.68,2.59,6.69,4.39,4,4,10,4.35,15.26,5.75,7.79,1.44,15.59,5,20.35,11.52,1.91,2.55,1.66,6.06,3.38,8.66,2.61,1.82,5.74.46,7.59-1.76.85-7.29-2.57-14.17-3.07-21.36-2.3-13.23-7.94-25.64-9.7-39-2.72-10.54-7.12-20.77-8.35-31.63,1.37-1,3.34-1.89,4.83-.57a20.46,20.46,0,0,0,10.51,3.63c3.13,2,6.94,2,10.39,3.23,5.29.64,10.15,4.6,15.62,2.85,2.8-.95,5.32,1.63,8.13,1.13,4.81-1.16,9.4,1.58,14.21,1.62a36.31,36.31,0,0,1,11,2.22c4-.29,8-.1,12-.27,1.9,0,4.47.25,4.82,2.58a199.44,199.44,0,0,0,22.14.3c5.73,1.33,11.78,3.79,17.68,1.83,4.43-.38,8.83,1,13.19,1.5,4.58-1.13,9,1,13.54,1.1,6.61-.21,13.19.77,19.72,1.73,1.14-.08,2.15-1.27,3.34-.56,2.67,1.29,5.68.61,8.54,1.08,4.65.76,9.38.26,14.07.05,4.36,0,8.54,1.84,12.93,1.68,5.33-.53,10.58.87,15.83,1.6,4.6,1,9.31-.21,14,.26,4,1.25,8.24,1.33,12.34,2.18,7,.27,14.08-.24,21,1.19a26.71,26.71,0,0,1,10,1.29c3.42,0,6.94-1.12,10,1a7.68,7.68,0,0,1,7,.74c1.31-.23,2.56-.83,3.91-1,8.44,1.88,17.18,2.33,25.73,3.28,2.64,2.09,5.92,2.63,9.16,3.16.2,1.49-1.85,1.89-2.6,2.9a7.89,7.89,0,0,0,4.11-2.56,85.36,85.36,0,0,0,9.82,1.41l.43,1.16c-1.44,0-2.86,0-4.27.1l-1.37,1.59c8-1.08,16.06-2.7,24.17-2.16,6.3,1.18,12.51-1,18.82-.73,5.28,0,11.2,1,15.77-2.33C1416.88,305.15,1418,303,1416.32,301.73ZM655.17,345.31c2.69-2,5.81-.25,8.2,1.35,2.89,2,6.31,3.94,7.42,7.55C664.66,353.82,657.69,351.39,655.17,345.31Zm309.06,17.48c4.63,8.45,11.93,15.11,16.39,23.7.46,2,0,4.39-1.87,5.48a23.55,23.55,0,0,1-8.72,3.41c-9.45,1.88-19.12,1.69-28.67,2a117.62,117.62,0,0,0-21.29-1.45,78,78,0,0,0-16.19-1.78c-2.49.16-3.93-2.31-6.12-3-2.77-.29-5.31,2-8,.94-9.57-2.45-19.06-5.18-28.68-7.43-6.74-2.8-13.94-6.47-17.46-13.22-2.35-4.69-.1-9.87-.67-14.71,2.61-4,3.15-8.87,5.53-13,1.6-2.84,2.37-6.1,4.37-8.71,3.88-4.94,6.24-10.82,8.64-16.57,1.92-4.57,6.1-7.86,7.27-12.78a91.56,91.56,0,0,0,6-10.95c1.29-.53,2.48.51,3.64,1,4.13,2.32,8.37,4.44,12.67,6.45,4.3,3.1,8.41,6.63,13.44,8.54,2.51,1.73,4.43,4.28,7.22,5.66a101.26,101.26,0,0,1,14.9,10.13c4.45,2.81,6.74,7.82,11.28,10.59a36.35,36.35,0,0,1-10.18,10.2,4.75,4.75,0,0,1-4-.92c-9.1-8.12-14.27-19.57-23.1-27.9-1.73-2.14-2.35-4.9-3.75-7.22-2-1.45-4.84-3.35-7-1.2a24,24,0,0,0-1.89,7.29c-.16,3.54,1.58,6.84,1.55,10.39a15,15,0,0,0,3.65,9.59c2.06.58,3.25-1.23,4.84-2,2.27,1.19,3.19,4,5,5.84,3,3,5.38,6.6,8.67,9.31,4.38,3.66,6.53,9.48,11.63,12.37,2.08,1.06,4.06,3.07,6.59,2.55,2.7.05,4.76-1.85,6.88-3.25,5.59-3.09,7.76-9.56,12.57-13.54,2-.52,3.25,1.51,4.65,2.57A107.82,107.82,0,0,1,964.23,362.79Z" fill="white" transform="translate(0 -0.06)"/><path d="M499.59,413.15c-.26-1.79,1.15-4,3.14-3.64a8.24,8.24,0,0,1,5.63,5.4c.93,2.8,4,4.37,4.23,7.46.54,4.7,3,8.73,4.77,13l-1.89.77c-.11.46-.34,1.38-.46,1.84-2.39.27-4.71-.45-7.06-.73a1.78,1.78,0,0,0-.79,2.4,1.82,1.82,0,0,0,.55.65c4,3.4,9.18,5.27,12.62,9.35,4.11,4.63,9,8.48,12.89,13.34,6,6.15,12,12.64,15.29,20.71,1.07,3,3.35,5.32,4.36,8.34,1.92,5.26,5.23,10.09,5.84,15.77-3.41-1.9-4.59-5.82-6.9-8.74-4.52-7-9-14.09-14.22-20.68-3.22-3.15-6-6.69-8.88-10.12-8.65-6-16.1-14-26-18l-1.53-.06c-3.75,4.36-6.07,9.82-10.47,13.66-3.39,4.64-8.52,7.47-12.23,11.79-2.06,2.3-5.05,4.43-8.27,3.22-2.66-.37-3.72-3-5.13-4.9-2.41-3.85-6.42-6.43-8.48-10.54-3.37-5.56-5.1-11.89-8-17.63-.24-4.62-1.93-9.05-1.89-13.69a4.72,4.72,0,0,1,1.63-3.67c9-1.7,18.19-3.42,27.34-2,5.63,2.29,11.55,3.68,17.22,5.86C497,426.85,499.8,420.15,499.59,413.15Zm-40,29.77c-.08.53-.25,1.58-.33,2.1,2.28,5.41,4.2,11.58,9.7,14.62,3.89-1.4,6.52-5.19,9.53-7.95,2-3.34,5.47-5.32,7.46-8.62-2,0-3.82.86-5.77.82.36-.92,1.77-1.37,1.42-2.54a18.68,18.68,0,0,0-6.54-.33c.05.49.16,1.46.22,2a32.05,32.05,0,0,0-8.07,0c.62-.62,1.24-1.24,1.85-1.87-3.18.43-6.51.6-9.51,1.82Z" fill="white" transform="translate(0 -0.06)"/><path d="M976.17,501.15" transform="translate(0 -0.06)"/><path d="M1199.52,570.6c-.06-6-.64-13.91,5.34-17.41,4.6,3.29,7,8.61,9,13.74,1.56,5.35.37,11.14-2.36,15.91C1206.18,580.33,1204.65,573.55,1199.52,570.6Z" fill="white" transform="translate(0 -0.06)"/><path d="M1110.88,574c3.27-.34,6.57-1.26,9.88-.74,3.66.86,7.63,4,11.28,1.43,4.25.3,8.75-1.59,12.71.66a10.81,10.81,0,0,0,8.91,1c-.49.81-1,1.61-1.43,2.45a12.12,12.12,0,0,0,2.47.88,57.25,57.25,0,0,0-6.79,3.27c1.74.89,3.68,1.56,5.06,3.06-7.54,1.87-15.49.47-23,2.47-4.2.26-9.33-.41-12.42,3.1.07,3.39-2.66,5.55-5.57,6.66a18.16,18.16,0,0,1-5-2.4c-.56-3.54-1.14-7.1-1.53-10.65.25-3.2.57-6.39,1-9.56C1107.44,574.22,1109.32,574.29,1110.88,574Z" fill="white" transform="translate(0 -0.06)"/></svg>